<svg xmlns="http://www.w3.org/2000/svg" viewBox="0 0 512 512" width="512" height="512" role="img" aria-label="C++ logo">
  <!-- gradient background -->
  <defs>
    <linearGradient id="g" x1="0" y1="0" x2="1" y2="1">
      <stop offset="0" stop-color="#5aa2e0"></stop>
      <stop offset="1" stop-color="#1f68b3"></stop>
    </linearGradient>
  </defs>

  <!-- Hexagon -->
  <g transform="translate(256,256)">
    <!-- regular hexagon centered at 0,0 with radius -->
    <path d="M0,-200 L173.2,-100 L173.2,100 L0,200 L-173.2,100 L-173.2,-100 Z" fill="url(#g)" stroke="#1660a5" stroke-width="2"></path>

    <!-- subtle diagonal shine -->
    <path d="M-173,0 L173,0 L86,100 L-86,100 Z" fill="#ffffff" opacity="0.06"></path>

    <!-- The "C" as a thick stroked path to look like bold letter -->
    <path d="M-70,-55
             A95,95 0 1,0 -70,55" fill="none" stroke="#ffffff" stroke-width="36" stroke-linecap="round" stroke-linejoin="round"></path>

    <!-- The ++ signs: two pluses made with rectangles (keeps them crisp in SVG) -->
    <g transform="translate(55,0)">
      <!-- first plus -->
      <rect x="-4" y="-24" width="8" height="48" fill="#ffffff" rx="1"></rect>
      <rect x="-24" y="-4" width="48" height="8" fill="#ffffff" rx="1"></rect>
    </g>

    <g transform="translate(95,0)">
      <!-- second plus -->
      <rect x="-4" y="-24" width="8" height="48" fill="#ffffff" rx="1"></rect>
      <rect x="-24" y="-4" width="48" height="8" fill="#ffffff" rx="1"></rect>
    </g>
  </g>
</svg>
